<!-- icon666.com - MILLIONS vector ICONS FREE --><svg viewBox="0 0 496 496" xmlns="http://www.w3.org/2000/svg"><path d="m476.71875 148.71875-129.4375-129.4375c-7.203125-7.203125-17.042969-11.28125-27.28125-11.28125s-20.078125 4.078125-27.28125 11.28125l-129.4375 129.4375c-7.203125 7.203125-11.28125 17.042969-11.28125 27.28125s4.078125 20.078125 11.28125 27.28125l129.4375 129.4375c7.203125 7.203125 17.042969 11.28125 27.28125 11.28125s20.078125-4.078125 27.28125-11.28125l129.4375-129.4375c7.203125-7.203125 11.28125-17.042969 11.28125-27.28125s-4.078125-20.078125-11.28125-27.28125zm0 0" fill="#ccd1d9"></path><path d="m264 304v152c0 17.679688-14.320312 32-32 32h-192c-17.679688 0-32-14.320312-32-32v-192c0-17.679688 14.320312-32 32-32h192c17.679688 0 32 14.320312 32 32zm-48 56c0-8.800781-7.199219-16-16-16s-16 7.199219-16 16 7.199219 16 16 16 16-7.199219 16-16zm0 0" fill="#e6e9ed"></path><g fill="#fcd770"><path d="m336 72c0 8.835938-7.164062 16-16 16s-16-7.164062-16-16 7.164062-16 16-16 16 7.164062 16 16zm0 0"></path><path d="m440 176c0 8.835938-7.164062 16-16 16s-16-7.164062-16-16 7.164062-16 16-16 16 7.164062 16 16zm0 0"></path><path d="m336 280c0 8.835938-7.164062 16-16 16s-16-7.164062-16-16 7.164062-16 16-16 16 7.164062 16 16zm0 0"></path><path d="m336 176c0 8.835938-7.164062 16-16 16s-16-7.164062-16-16 7.164062-16 16-16 16 7.164062 16 16zm0 0"></path><path d="m232 176c0 8.835938-7.164062 16-16 16s-16-7.164062-16-16 7.164062-16 16-16 16 7.164062 16 16zm0 0"></path><path d="m216 280c0 8.835938-7.164062 16-16 16s-16-7.164062-16-16 7.164062-16 16-16 16 7.164062 16 16zm0 0"></path><path d="m216 360c0 8.835938-7.164062 16-16 16s-16-7.164062-16-16 7.164062-16 16-16 16 7.164062 16 16zm0 0"></path><path d="m216 440c0 8.835938-7.164062 16-16 16s-16-7.164062-16-16 7.164062-16 16-16 16 7.164062 16 16zm0 0"></path><path d="m88 440c0 8.835938-7.164062 16-16 16s-16-7.164062-16-16 7.164062-16 16-16 16 7.164062 16 16zm0 0"></path><path d="m88 360c0 8.835938-7.164062 16-16 16s-16-7.164062-16-16 7.164062-16 16-16 16 7.164062 16 16zm0 0"></path><path d="m88 280c0 8.835938-7.164062 16-16 16s-16-7.164062-16-16 7.164062-16 16-16 16 7.164062 16 16zm0 0"></path></g><path d="m200 416c-13.230469 0-24 10.769531-24 24s10.769531 24 24 24 24-10.769531 24-24-10.769531-24-24-24zm0 32c-4.40625 0-8-3.585938-8-8s3.59375-8 8-8 8 3.585938 8 8-3.59375 8-8 8zm0 0"></path><path d="m200 336c-13.230469 0-24 10.769531-24 24s10.769531 24 24 24 24-10.769531 24-24-10.769531-24-24-24zm0 32c-4.40625 0-8-3.585938-8-8s3.59375-8 8-8 8 3.585938 8 8-3.59375 8-8 8zm0 0"></path><path d="m200 256c-13.230469 0-24 10.769531-24 24s10.769531 24 24 24 24-10.769531 24-24-10.769531-24-24-24zm0 32c-4.40625 0-8-3.585938-8-8s3.59375-8 8-8 8 3.585938 8 8-3.59375 8-8 8zm0 0"></path><path d="m320 152c-13.230469 0-24 10.769531-24 24s10.769531 24 24 24 24-10.769531 24-24-10.769531-24-24-24zm0 32c-4.40625 0-8-3.59375-8-8s3.59375-8 8-8 8 3.59375 8 8-3.59375 8-8 8zm0 0"></path><path d="m216 152c-13.230469 0-24 10.769531-24 24s10.769531 24 24 24 24-10.769531 24-24-10.769531-24-24-24zm0 32c-4.40625 0-8-3.59375-8-8s3.59375-8 8-8 8 3.59375 8 8-3.59375 8-8 8zm0 0"></path><path d="m424 152c-13.230469 0-24 10.769531-24 24s10.769531 24 24 24 24-10.769531 24-24-10.769531-24-24-24zm0 32c-4.40625 0-8-3.59375-8-8s3.59375-8 8-8 8 3.59375 8 8-3.59375 8-8 8zm0 0"></path><path d="m320 48c-13.230469 0-24 10.769531-24 24s10.769531 24 24 24 24-10.769531 24-24-10.769531-24-24-24zm0 32c-4.40625 0-8-3.59375-8-8s3.59375-8 8-8 8 3.59375 8 8-3.59375 8-8 8zm0 0"></path><path d="m320 256c-13.230469 0-24 10.769531-24 24s10.769531 24 24 24 24-10.769531 24-24-10.769531-24-24-24zm0 32c-4.40625 0-8-3.585938-8-8s3.59375-8 8-8 8 3.585938 8 8-3.59375 8-8 8zm0 0"></path><path d="m72 416c-13.230469 0-24 10.769531-24 24s10.769531 24 24 24 24-10.769531 24-24-10.769531-24-24-24zm0 32c-4.40625 0-8-3.585938-8-8s3.59375-8 8-8 8 3.585938 8 8-3.59375 8-8 8zm0 0"></path><path d="m72 336c-13.230469 0-24 10.769531-24 24s10.769531 24 24 24 24-10.769531 24-24-10.769531-24-24-24zm0 32c-4.40625 0-8-3.585938-8-8s3.59375-8 8-8 8 3.585938 8 8-3.59375 8-8 8zm0 0"></path><path d="m72 256c-13.230469 0-24 10.769531-24 24s10.769531 24 24 24 24-10.769531 24-24-10.769531-24-24-24zm0 32c-4.40625 0-8-3.585938-8-8s3.59375-8 8-8 8 3.585938 8 8-3.59375 8-8 8zm0 0"></path><path d="m482.34375 143.03125-129.375-129.375c-8.800781-8.808594-20.511719-13.65625-32.96875-13.65625s-24.167969 4.847656-32.96875 13.65625l-129.375 129.375c-8.808594 8.800781-13.65625 20.511719-13.65625 32.96875s4.847656 24.167969 13.65625 32.96875l15.03125 15.03125h-132.6875c-22.054688 0-40 17.945312-40 40v192c0 22.054688 17.945312 40 40 40h192c22.054688 0 40-17.945312 40-40v-132.6875l15.03125 15.03125c8.800781 8.808594 20.511719 13.65625 32.96875 13.65625s24.167969-4.847656 32.96875-13.65625l129.375-129.375c8.808594-8.800781 13.65625-20.511719 13.65625-32.96875s-4.847656-24.167969-13.65625-32.96875zm-226.34375 312.96875c0 13.230469-10.769531 24-24 24h-192c-13.230469 0-24-10.769531-24-24v-192c0-13.230469 10.769531-24 24-24h192c13.230469 0 24 10.769531 24 24zm215.03125-258.34375-129.375 129.375c-11.566406 11.5625-31.746094 11.5625-43.3125 0l-26.34375-26.34375v-36.6875c0-22.054688-17.945312-40-40-40h-36.6875l-26.34375-26.34375c-5.785156-5.785156-8.96875-13.480469-8.96875-21.65625s3.183594-15.871094 8.96875-21.65625l129.375-129.375c11.566406-11.570312 31.746094-11.570312 43.3125 0l129.375 129.375c5.785156 5.785156 8.96875 13.480469 8.96875 21.65625s-3.183594 15.871094-8.96875 21.65625zm0 0"></path><path d="m362.339844 85.660156 11.3125-11.316406 11.3125 11.316406-11.3125 11.3125zm0 0"></path><path d="m384.972656 108.289062 11.3125-11.316406 11.3125 11.316406-11.3125 11.3125zm0 0"></path><path d="m407.59375 130.917969 11.3125-11.3125 10.75 10.746093-11.316406 11.3125zm0 0"></path><path d="m354.34375 274.347656 10.742188-10.742187 11.3125 11.3125-10.742188 10.742187zm0 0"></path><path d="m376.402344 252.285156 11.308594-11.308594 11.316406 11.3125-11.308594 11.308594zm0 0"></path><path d="m399.027344 229.65625 11.3125-11.3125 11.3125 11.3125-11.3125 11.316406zm0 0"></path></svg>